<svg width="535" height="340" viewBox="0 0 535 340" fill="none" xmlns="http://www.w3.org/2000/svg">
<path d="M404.754 163.855L409.369 158.223L525.77 0H464.749L379.115 116.747L374.5 122.892L369.885 116.747L283.738 0H222.717L339.631 158.223L343.733 163.855V164.367L374.5 205.331L473.979 340H535L404.754 163.855ZM214 340H275.021L359.117 226.325L328.863 184.849L214 340Z" fill="black"/>
<path d="M269.936 4.29701e-06L220.764 0L220.764 187.392L269.936 236.544L269.936 4.29701e-06ZM48.6602 339.968L48.6602 119.808L270 340L269.936 271.36L2.95989e-05 1.53598L0 339.968L48.6602 339.968Z" fill="black"/>
</svg>
